<?xml version="1.0" standalone="no"?>
<!DOCTYPE svg PUBLIC "-//W3C//DTD SVG 20010904//EN"
 "http://www.w3.org/TR/2001/REC-SVG-20010904/DTD/svg10.dtd">
<svg version="1.0" xmlns="http://www.w3.org/2000/svg"
 width="32.000000pt" height="32.000000pt" viewBox="0 0 32.000000 32.000000"
 preserveAspectRatio="xMidYMid meet">

<g transform="translate(0.000000,32.000000) scale(0.100000,-0.100000)"
fill="#374151" stroke="none">
<path d="M102 268 c-39 -23 -50 -34 -42 -42 8 -8 14 -7 20 5 5 9 30 24 55 33
25 10 43 22 39 27 -8 13 -13 11 -72 -23z"/>
<path d="M156 261 c-3 -4 -19 -11 -36 -14 -36 -8 -39 -29 -6 -50 22 -15 25
-15 41 3 10 11 26 20 35 20 10 0 23 7 30 15 17 21 1 19 -56 -5 -36 -16 -44
-17 -34 -5 7 8 20 15 29 15 9 0 25 7 35 15 19 14 19 15 -6 15 -15 0 -29 -4
-32 -9z"/>
<path d="M197 213 c-26 -13 -45 -28 -42 -34 6 -9 64 19 95 48 20 19 3 14 -53
-14z"/>
<path d="M58 197 c24 -25 29 -51 10 -44 -7 2 -12 11 -10 21 2 9 -2 16 -8 16
-7 0 -10 -19 -8 -52 3 -50 4 -53 52 -80 27 -16 51 -27 53 -24 3 2 -5 10 -17
16 -11 6 -25 22 -30 36 -6 14 -17 24 -30 24 -20 0 -26 11 -13 23 8 9 53 -32
53 -49 0 -7 9 -18 20 -24 16 -9 22 -8 26 5 5 11 -6 28 -30 49 -38 36 -46 56
-20 56 11 0 13 -6 9 -19 -4 -14 1 -23 17 -32 13 -6 27 -18 31 -26 10 -16 47 0
47 21 0 17 45 58 53 49 13 -12 7 -21 -18 -27 -14 -4 -25 -13 -25 -21 0 -7 -13
-23 -30 -35 -28 -20 -41 -50 -21 -50 13 0 100 50 107 61 3 6 3 13 -1 17 -4 4
-10 1 -12 -5 -6 -18 -33 -16 -33 1 0 8 10 16 23 18 19 3 22 10 25 51 2 26 0
47 -4 47 -3 0 -31 -14 -60 -31 l-54 -30 -54 30 c-64 37 -77 39 -48 8z m142
-51 c0 -7 -9 -16 -20 -19 -22 -6 -29 18 -7 26 21 9 27 7 27 -7z"/>
</g>
</svg>
